# xmcd
#
# Track frame offsets:
#	150
#	9829
#	22374
#	37589
#	52071
#	66745
#	81847
#	92670
#	104347
#	120074
#	133976
#	148365
#	161147
#
# Disc length: 2412 seconds
#
# Revision: 1
# Processed by: cddbd v1.5.2PL0 Copyright (c) Steve Scherf et al.
# Submitted via: audiograbber 1.83.01
#
DISCID=b5096a0d
DTITLE=Wagon Trail - Country Band - Wagon Trail
DYEAR=1900
DGENRE=Country
TTITLE0=Heartland
TTITLE1=Someone should tell her
TTITLE2=She loves me
TTITLE3=These arms
TTITLE4=Tomorrow (we start over again)
TTITLE5=A little bit is better
TTITLE6=I've got a quarter in my pocket
TTITLE7=Hello honky tonk
TTITLE8=That side of you
TTITLE9=Knock on wood
TTITLE10=Un momento allá
TTITLE11=In no time at all
TTITLE12=One way rider
EXTD=VISCO Productions - Rosmalen
EXTT0=
EXTT1=
EXTT2=
EXTT3=
EXTT4=
EXTT5=
EXTT6=
EXTT7=
EXTT8=
EXTT9=
EXTT10=
EXTT11=
EXTT12=
PLAYORDER=
